<svg width="43" height="43" viewBox="0 0 43 43" fill="none" xmlns="http://www.w3.org/2000/svg">
<path d="M17.9174 32.2008C18.2113 32.2333 18.51 32.2499 18.8125 32.2499H24.1875C24.5054 32.2499 24.819 32.2315 25.1272 32.1957C25.0984 31.2313 24.3075 30.4583 23.336 30.4583H19.7084C18.7353 30.4583 17.9434 31.234 17.9174 32.2008ZM16.1529 31.8009C16.3738 30.0338 17.8814 28.6666 19.7084 28.6666H23.336C25.1579 28.6666 26.6622 30.026 26.8899 31.7859C29.7437 30.7709 31.857 28.1937 32.2008 25.0833H10.7992C11.1448 28.2092 13.2775 30.7965 16.1529 31.8009ZM21.5 39.4166C11.6049 39.4166 3.58337 31.395 3.58337 21.4999C3.58337 11.6048 11.6049 3.58325 21.5 3.58325C31.3951 3.58325 39.4167 11.6048 39.4167 21.4999C39.4167 31.395 31.3951 39.4166 21.5 39.4166ZM21.5 37.6249C30.4056 37.6249 37.625 30.4055 37.625 21.4999C37.625 12.5943 30.4056 5.37492 21.5 5.37492C12.5944 5.37492 5.37504 12.5943 5.37504 21.4999C5.37504 30.4055 12.5944 37.6249 21.5 37.6249ZM16.125 19.7083C15.1355 19.7083 14.3334 18.9061 14.3334 17.9166C14.3334 16.9271 15.1355 16.1249 16.125 16.1249C17.1146 16.1249 17.9167 16.9271 17.9167 17.9166C17.9167 18.9061 17.1146 19.7083 16.125 19.7083ZM26.875 19.7083C25.8855 19.7083 25.0834 18.9061 25.0834 17.9166C25.0834 16.9271 25.8855 16.1249 26.875 16.1249C27.8645 16.1249 28.6667 16.9271 28.6667 17.9166C28.6667 18.9061 27.8645 19.7083 26.875 19.7083ZM9.85421 23.2916H33.1459C33.6406 23.2916 34.0417 23.6927 34.0417 24.1874C34.0417 29.6297 29.6298 34.0416 24.1875 34.0416H18.8125C13.3702 34.0416 8.95837 29.6297 8.95837 24.1874C8.95837 23.6927 9.35945 23.2916 9.85421 23.2916Z" fill="black"/>
</svg>
