<svg width="35" height="35" viewBox="0 0 35 35" fill="none" xmlns="http://www.w3.org/2000/svg">
<path d="M27.7084 19.0386L21.3486 16.4136C21.2452 16.3723 21.1567 16.3008 21.0945 16.2085C21.0323 16.1162 20.9994 16.0072 21 15.8959V9.93133C21.0018 9.44108 20.9063 8.95536 20.719 8.50227C20.5318 8.04918 20.2565 7.63774 19.9092 7.29175C19.4524 6.84005 18.8877 6.51264 18.2687 6.34061C17.6498 6.16858 16.9971 6.15764 16.3727 6.30883C15.5466 6.53756 14.8197 7.03388 14.3059 7.72003C13.7921 8.40617 13.5204 9.24339 13.5334 10.1005V21.4011L11.4917 19.3595C11.1276 19.0074 10.697 18.7315 10.2249 18.5479C9.75292 18.3644 9.24902 18.2768 8.74274 18.2904C8.23646 18.304 7.73798 18.4184 7.27648 18.627C6.81498 18.8356 6.39973 19.1342 6.05504 19.5053C5.42952 20.2594 5.1129 21.2225 5.16891 22.2006C5.22492 23.1788 5.64941 24.0994 6.35691 24.7772L13.8761 32.2963C14.0897 32.5106 14.3436 32.6805 14.6232 32.7962C14.9028 32.9118 15.2025 32.9709 15.505 32.9701H25.76C26.2781 32.9706 26.7811 32.7962 27.1877 32.4752C27.5942 32.1541 27.8805 31.7052 28 31.2011L29.9119 23.3772C30.1275 22.5099 30.0234 21.594 29.6187 20.7972C29.214 20.0005 28.5358 19.3762 27.7084 19.0386ZM28.2086 22.9615L26.2967 30.784C26.2676 30.9049 26.1987 31.0124 26.1011 31.0894C26.0035 31.1664 25.8829 31.2083 25.7586 31.2084H15.5021C15.4293 31.2087 15.3571 31.1945 15.2898 31.1667C15.2224 31.139 15.1613 31.0981 15.1098 31.0465L7.59066 23.5274C7.20265 23.1606 6.9649 22.6626 6.92366 22.1303C6.88242 21.598 7.04064 21.0693 7.36754 20.6472C7.547 20.446 7.76583 20.2837 8.01049 20.1704C8.25515 20.0571 8.52044 19.9952 8.78998 19.9885C9.05951 19.9818 9.32755 20.0305 9.57754 20.1315C9.82752 20.2325 10.0541 20.3837 10.2434 20.5757L13.79 24.1224C13.9124 24.2446 14.0682 24.3278 14.2379 24.3615C14.4075 24.3952 14.5833 24.3779 14.7431 24.3117C14.9029 24.2455 15.0395 24.1335 15.1357 23.9898C15.2318 23.846 15.2832 23.677 15.2834 23.504V10.0874C15.2688 9.62258 15.4083 9.16602 15.6803 8.78882C15.9522 8.41161 16.3413 8.13496 16.7869 8.00196C17.1216 7.91856 17.4722 7.92336 17.8045 8.01588C18.1367 8.10841 18.4393 8.2855 18.6827 8.52987C18.8659 8.7136 19.0108 8.93178 19.1092 9.17182C19.2076 9.41186 19.2574 9.66901 19.2559 9.92842V15.8959C19.2549 16.3524 19.3899 16.7988 19.6437 17.1783C19.8974 17.5577 20.2584 17.853 20.6807 18.0265L27.039 20.6515C27.479 20.8316 27.8394 21.1643 28.054 21.5886C28.2685 22.0129 28.3229 22.5004 28.2071 22.9615H28.2086ZM10.0305 13.4561C9.53383 12.3956 9.2764 11.2388 9.2764 10.0677C9.2764 8.8966 9.53383 7.73982 10.0305 6.67925C10.4199 5.82671 10.9582 5.05041 11.62 4.38675C13.1292 2.88592 15.1711 2.04346 17.2995 2.04346C19.4279 2.04346 21.4698 2.88592 22.979 4.38675C23.647 5.05346 24.1902 5.8343 24.5832 6.69237C25.0775 7.75179 25.3336 8.90665 25.3336 10.0757C25.3336 11.2448 25.0775 12.3996 24.5832 13.459C24.5369 13.5668 24.4694 13.6642 24.3847 13.7454C24.3 13.8265 24.1999 13.8898 24.0902 13.9315C23.9806 13.9732 23.8637 13.9924 23.7464 13.988C23.6292 13.9837 23.5141 13.9557 23.4079 13.906C23.3017 13.8562 23.2065 13.7855 23.1282 13.6983C23.0498 13.611 22.9898 13.5088 22.9517 13.3979C22.9136 13.287 22.8982 13.1695 22.9064 13.0525C22.9146 12.9355 22.9462 12.8213 22.9994 12.7168C23.3867 11.8884 23.5875 10.9851 23.5875 10.0706C23.5875 9.15615 23.3867 8.25284 22.9994 7.42446C22.6953 6.75614 22.274 6.14766 21.7555 5.62779C20.5736 4.45227 18.9745 3.79241 17.3075 3.79241C15.6406 3.79241 14.0415 4.45227 12.8596 5.62779C12.345 6.14407 11.9267 6.74805 11.6244 7.41133C11.2352 8.241 11.0335 9.14617 11.0335 10.0626C11.0335 10.979 11.2352 11.8842 11.6244 12.7138C11.7228 12.924 11.7337 13.1648 11.6547 13.383C11.5757 13.6012 11.4132 13.7791 11.203 13.8776C11.0989 13.9263 10.9862 13.9541 10.8714 13.9593C10.7566 13.9645 10.6419 13.947 10.5338 13.9079C10.3155 13.8288 10.1376 13.6663 10.0392 13.4561H10.0305ZM6.14108 15.2586C5.38214 13.6387 4.98752 11.8721 4.985 10.0832C4.98248 8.29425 5.37212 6.52653 6.1265 4.90446C6.20441 4.71923 6.3437 4.56647 6.52096 4.47184C6.69823 4.3772 6.90266 4.34646 7.09992 4.38479C7.29717 4.42311 7.47523 4.52815 7.60416 4.68228C7.7331 4.8364 7.80506 5.0302 7.80796 5.23112C7.80807 5.36439 7.77973 5.49615 7.72483 5.61758C7.0731 7.00982 6.73528 8.52827 6.73528 10.0655C6.73528 11.6027 7.0731 13.1212 7.72483 14.5134C7.82365 14.7234 7.835 14.9641 7.75637 15.1825C7.67774 15.4009 7.51558 15.5791 7.30556 15.6779C7.09554 15.7767 6.85487 15.7881 6.63649 15.7094C6.4181 15.6308 6.2399 15.4686 6.14108 15.2586ZM26.8771 14.5134C27.5293 13.1213 27.8674 11.6028 27.8674 10.0655C27.8674 8.52819 27.5293 7.00968 26.8771 5.61758C26.8129 5.48394 26.7836 5.33617 26.7921 5.18813C26.8007 5.04009 26.8467 4.89665 26.9258 4.77126C27.005 4.64588 27.1147 4.54267 27.2447 4.47133C27.3747 4.39999 27.5207 4.36286 27.669 4.36342C27.8523 4.36284 28.0311 4.41982 28.1802 4.52631C28.3294 4.6328 28.4413 4.78344 28.5002 4.95696C29.2419 6.57374 29.6226 8.33264 29.6158 10.1114C29.609 11.8902 29.2149 13.6461 28.4609 15.2572C28.3621 15.4672 28.1838 15.6293 27.9655 15.708C27.7471 15.7866 27.5064 15.7753 27.2964 15.6764C27.0864 15.5776 26.9242 15.3994 26.8456 15.181C26.767 14.9626 26.7783 14.722 26.8771 14.512V14.5134Z" fill="#263238"/>
</svg>
