<svg width="43" height="43" viewBox="0 0 43 43" fill="none" xmlns="http://www.w3.org/2000/svg">
<path d="M26.8734 26.0988C26.81 28.5172 24.8296 30.4583 22.3958 30.4583H9.85417C7.38039 30.4583 5.375 28.4529 5.375 25.9791V17.0208C5.375 14.547 7.38039 12.5416 9.85417 12.5416H19.1547L18.2588 10.7499H11.6458C11.1511 10.7499 10.75 10.3488 10.75 9.85409C10.75 9.35933 11.1511 8.95825 11.6458 8.95825H18.8125C19.1518 8.95825 19.462 9.14996 19.6138 9.45346L21.1578 12.5416H22.3958C24.8296 12.5416 26.81 14.4826 26.8734 16.9011L30.8661 13.5739C32.6144 12.1169 35.2129 12.3531 36.6699 14.1015C37.287 14.8421 37.625 15.7756 37.625 16.7396V26.2602C37.625 28.5361 35.78 30.3811 33.5042 30.3811C32.5402 30.3811 31.6066 30.0431 30.8661 29.426L26.8734 26.0988ZM26.875 23.7678L32.0131 28.0496C32.4317 28.3984 32.9593 28.5894 33.5042 28.5894C34.7905 28.5894 35.8333 27.5466 35.8333 26.2602V16.7396C35.8333 16.1947 35.6423 15.6671 35.2935 15.2485C34.47 14.2603 33.0013 14.1268 32.0131 14.9503L26.875 19.232V23.7678ZM25.0833 25.9791V17.0208C25.0833 15.5365 23.8801 14.3333 22.3958 14.3333H20.6236C20.6111 14.3335 20.5986 14.3335 20.5861 14.3333H9.85417C8.3699 14.3333 7.16667 15.5365 7.16667 17.0208V25.9791C7.16667 27.4633 8.3699 28.6666 9.85417 28.6666H22.3958C23.8801 28.6666 25.0833 27.4633 25.0833 25.9791ZM9.85417 17.9166C9.35941 17.9166 8.95833 17.5155 8.95833 17.0208C8.95833 16.526 9.35941 16.1249 9.85417 16.1249H15.2292C15.7239 16.1249 16.125 16.526 16.125 17.0208C16.125 17.5155 15.7239 17.9166 15.2292 17.9166H9.85417ZM15.2292 26.8749C14.7344 26.8749 14.3333 26.4738 14.3333 25.9791C14.3333 25.4843 14.7344 25.0833 15.2292 25.0833H17.0208C17.5156 25.0833 17.9167 25.4843 17.9167 25.9791C17.9167 26.4738 17.5156 26.8749 17.0208 26.8749H15.2292ZM20.6042 26.8749C20.1094 26.8749 19.7083 26.4738 19.7083 25.9791C19.7083 25.4843 20.1094 25.0833 20.6042 25.0833H22.3958C22.8906 25.0833 23.2917 25.4843 23.2917 25.9791C23.2917 26.4738 22.8906 26.8749 22.3958 26.8749H20.6042Z" fill="#263238"/>
</svg>
